PathFileType	4	(X/Y/Z)	C:\Users\86182\Documents\cortex\Trimmed_M4_L11.trc
DataRate	CameraRate	NumFrames	NumMarkers	Units	OrigDataRate	OrigDataStartFrame	OrigNumFrames
100.00	100.00	       130	2	mm	100.00	1	       901
Frame#	Time	gripper			box			
		X1	Y1	Z1	X2	Y2	Z2	

1	0.000	275.43903	149.25153	192.01668	281.61856	146.25117	55.40432	
2	0.010	275.43878	149.25179	192.01680	281.62994	146.25273	55.39700	
3	0.020	275.43845	149.25208	192.01685	281.63583	146.25444	55.39325	
4	0.030	275.43808	149.25238	192.01688	281.63678	146.25580	55.39272	
5	0.040	275.43781	149.25267	192.01701	281.63333	146.25706	55.39493	
6	0.050	275.43759	149.25296	192.01726	281.62506	146.25894	55.39989	
7	0.060	275.43716	149.25342	192.01752	281.60925	146.26213	55.40918	
8	0.070	275.43622	149.25424	192.01770	281.58154	146.26729	55.42551	
9	0.080	275.43454	149.25552	192.01775	281.53778	146.27496	55.45148	
10	0.090	275.43222	149.25728	192.01775	281.47583	146.28552	55.48835	
11	0.100	275.42960	149.25931	192.01779	281.39780	146.29860	55.53483	
12	0.110	275.42706	149.26131	192.01791	281.31332	146.31262	55.58508	
13	0.120	275.42493	149.26306	192.01810	281.24399	146.32430	55.62613	
14	0.130	275.42328	149.26453	192.01834	281.21945	146.32928	55.64021	
15	0.140	275.42203	149.26588	192.01872	281.25543	146.32549	55.61797	
16	0.150	275.42108	149.26723	192.01932	281.33716	146.31511	55.56828	
17	0.160	275.42059	149.26851	192.02011	281.43460	146.30238	55.50926	
18	0.170	275.42081	149.26950	192.02104	281.52451	146.29044	55.45496	
19	0.180	275.42203	149.26984	192.02202	281.59558	146.28088	55.41223	
20	0.190	275.42447	149.26923	192.02287	281.64420	146.27458	55.38318	
21	0.200	275.42798	149.26756	192.02351	281.66986	146.27179	55.36800	
22	0.210	275.43210	149.26509	192.02394	281.67227	146.27243	55.36667	
23	0.220	275.43604	149.26233	192.02428	281.65079	146.27644	55.37949	
24	0.230	275.43909	149.25987	192.02466	281.60495	146.28380	55.40667	
25	0.240	275.44070	149.25824	192.02502	281.53601	146.29448	55.44746	
26	0.250	275.44061	149.25768	192.02515	281.44925	146.30801	55.49876	
27	0.260	275.43893	149.25826	192.02493	281.35681	146.32283	55.55340	
28	0.270	275.43622	149.25969	192.02440	281.28131	146.33542	55.59803	
29	0.280	275.43317	149.26149	192.02371	281.25198	146.34105	55.61533	
30	0.290	275.43051	149.26308	192.02298	281.28339	146.33731	55.59666	
31	0.300	275.42880	149.26396	192.02228	281.35992	146.32646	55.55131	
32	0.310	275.42819	149.26393	192.02162	281.45120	146.31302	55.49727	
33	0.320	275.42850	149.26315	192.02100	281.53485	146.30040	55.44778	
34	0.330	275.42917	149.26216	192.02042	281.60117	146.29036	55.40852	
35	0.340	275.42960	149.26147	192.01991	281.64865	146.28352	55.38032	
36	0.350	275.42960	149.26128	192.01952	281.67957	146.27969	55.36180	
37	0.360	275.42935	149.26138	192.01920	281.69714	146.27809	55.35112	
38	0.370	275.42917	149.26144	192.01886	281.70425	146.27777	55.34666	
39	0.380	275.42920	149.26132	192.01849	281.70377	146.27789	55.34681	
40	0.390	275.42932	149.26115	192.01819	281.69894	146.27811	55.34971	
41	0.400	275.42923	149.26134	192.01810	281.69299	146.27838	55.35337	
42	0.410	275.42868	149.26215	192.01830	281.68854	146.27890	55.35618	
43	0.420	275.42770	149.26340	192.01874	281.68658	146.27969	55.35745	
44	0.430	275.42664	149.26460	192.01924	281.68677	146.28061	55.35738	
45	0.440	275.42596	149.26521	192.01956	281.68820	146.28148	55.35655	
46	0.450	275.42606	149.26492	192.01961	281.69003	146.28217	55.35549	
47	0.460	275.42694	149.26384	192.01936	281.69156	146.28261	55.35459	
48	0.470	275.42834	149.26231	192.01897	281.69226	146.28278	55.35414	
49	0.480	275.43002	149.26067	192.01855	281.69177	146.28262	55.35436	
50	0.490	275.43188	149.25906	192.01822	281.68997	146.28215	55.35539	
51	0.500	275.43384	149.25760	192.01796	281.68707	146.28143	55.35709	
52	0.510	275.43558	149.25639	192.01776	281.68393	146.28067	55.35896	
53	0.520	275.43683	149.25569	192.01759	281.68176	146.28015	55.36023	
54	0.530	275.43729	149.25562	192.01746	281.68161	146.28011	55.36022	
55	0.540	275.43689	149.25618	192.01736	281.68359	146.28058	55.35881	
56	0.550	275.43567	149.25732	192.01743	281.68704	146.28140	55.35646	
57	0.560	275.43396	149.25879	192.01762	281.69110	146.28235	55.35377	
58	0.570	275.43222	149.26018	192.01788	281.69507	146.28328	55.35124	
59	0.580	275.43085	149.26111	192.01810	281.69827	146.28400	55.34928	
60	0.590	275.42993	149.26149	192.01822	281.70035	146.28445	55.34813	
61	0.600	275.42947	149.26146	192.01834	281.70139	146.28465	55.34764	
62	0.610	275.42929	149.26134	192.01855	281.70203	146.28477	55.34738	
63	0.620	275.42908	149.26144	192.01900	281.70267	146.28493	55.34701	
64	0.630	275.42871	149.26187	192.01961	281.70328	146.28508	55.34655	
65	0.640	275.42810	149.26256	192.02026	281.70349	146.28516	55.34629	
66	0.650	275.42728	149.26337	192.02078	281.70288	146.28503	55.34653	
67	0.660	275.42630	149.26418	192.02112	281.70135	146.28471	55.34740	
68	0.670	275.42542	149.26479	192.02115	281.69931	146.28424	55.34869	
69	0.680	275.42487	149.26494	192.02083	281.69730	146.28377	55.35006	
70	0.690	275.42505	149.26439	192.02022	281.69568	146.28336	55.35123	
71	0.700	275.42609	149.26311	192.01944	281.69449	146.28307	55.35211	
72	0.710	275.42783	149.26131	192.01872	281.69373	146.28287	55.35267	
73	0.720	275.42987	149.25941	192.01823	281.69333	146.28278	55.35291	
74	0.730	275.43176	149.25781	192.01805	281.69312	146.28275	55.35295	
75	0.740	275.43326	149.25670	192.01814	281.69278	146.28268	55.35308	
76	0.750	275.43436	149.25603	192.01843	281.69205	146.28255	55.35345	
77	0.760	275.43524	149.25562	192.01891	281.69092	146.28230	55.35405	
78	0.770	275.43613	149.25534	192.01953	281.68954	146.28201	55.35482	
79	0.780	275.43686	149.25529	192.02023	281.68832	146.28175	55.35548	
80	0.790	275.43732	149.25562	192.02100	281.68759	146.28162	55.35579	
81	0.800	275.43729	149.25647	192.02187	281.68738	146.28159	55.35580	
82	0.810	275.43671	149.25792	192.02283	281.68707	146.28154	55.35592	
83	0.820	275.43558	149.25993	192.02380	281.68594	146.28128	55.35662	
84	0.830	275.43408	149.26222	192.02461	281.68362	146.28075	55.35812	
85	0.840	275.43262	149.26431	192.02512	281.68066	146.28003	55.36010	
86	0.850	275.43155	149.26570	192.02512	281.67819	146.27943	55.36179	
87	0.860	275.43091	149.26607	192.02454	281.67737	146.27922	55.36240	
88	0.870	275.43073	149.26541	192.02351	281.67859	146.27948	55.36165	
89	0.880	275.43103	149.26393	192.02229	281.68134	146.28009	55.35989	
90	0.890	275.43164	149.26224	192.02118	281.68500	146.28093	55.35754	
91	0.900	275.43204	149.26105	192.02036	281.68936	146.28192	55.35475	
92	0.910	275.43198	149.26074	192.01987	281.69437	146.28308	55.35155	
93	0.920	275.43149	149.26129	192.01967	281.69968	146.28433	55.34815	
94	0.930	275.43085	149.26244	192.01968	281.70438	146.28549	55.34511	
95	0.940	275.43033	149.26378	192.01979	281.70749	146.28636	55.34306	
96	0.950	275.43030	149.26472	192.01984	281.70840	146.28679	55.34244	
97	0.960	275.43094	149.26466	192.01964	281.70679	146.28670	55.34348	
98	0.970	275.43164	149.26346	192.01917	281.70251	146.28606	55.34632	
99	0.980	275.43115	149.26178	192.01875	281.69565	146.28479	55.35101	
100	0.990	275.42810	149.26093	192.01912	281.68634	146.28279	55.35760	
101	1.000	275.42154	149.26222	192.02107	281.67484	146.27994	55.36604	
102	1.010	275.41119	149.26668	192.02525	281.66168	146.27609	55.37598	
103	1.020	275.39774	149.27466	192.03191	281.64850	146.27132	55.38629	
104	1.030	275.38361	149.28580	192.04083	281.63779	146.26590	55.39503	
105	1.040	275.37332	149.29887	192.05119	281.63223	146.26022	55.39991	
106	1.050	275.37381	149.31174	192.06119	281.63394	146.25479	55.39886	
107	1.060	275.39386	149.32155	192.06784	281.64407	146.25031	55.39019	
108	1.070	275.44376	149.32477	192.06693	281.66116	146.24760	55.37376	
109	1.080	275.53381	149.31743	192.05344	281.67795	146.24724	55.35317	
110	1.090	275.67239	149.29590	192.02301	281.67960	146.24934	55.33724	
111	1.100	275.86203	149.25845	191.97476	281.64514	146.25412	55.33955	
112	1.110	276.09302	149.20738	191.91492	281.55139	146.26259	55.37632	
113	1.120	276.33835	149.14975	191.85922	281.37747	146.27696	55.46368	
114	1.130	276.55991	149.09540	191.82965	281.10971	146.30026	55.61444	
115	1.140	276.72360	149.05316	191.84659	280.74814	146.33501	55.83424	
116	1.150	276.80856	149.02847	191.92342	280.31604	146.38092	56.11580	
117	1.160	276.80795	149.02275	192.06606	279.86520	146.43343	56.43549	
118	1.170	276.72903	149.03360	192.27338	279.45984	146.48547	56.76230	
119	1.180	276.59225	149.05611	192.53651	279.14572	146.53157	57.07571	
120	1.190	276.42978	149.08455	192.83871	278.93552	146.56946	57.37292	
121	1.200	276.28293	149.11330	193.15807	278.81729	146.59900	57.66184	
122	1.210	276.18872	149.13805	193.47591	278.76831	146.62125	57.95175	
123	1.220	276.15738	149.15804	193.78783	278.76593	146.63766	58.24813	
124	1.230	276.16476	149.17656	194.10593	278.79370	146.64934	58.55145	
125	1.240	276.17456	149.19769	194.44647	278.84232	146.65714	58.85868	
126	1.250	276.17032	149.22162	194.81424	278.90753	146.66223	59.16636	
127	1.260	276.16431	149.24403	195.19986	278.98721	146.66595	59.47441	
128	1.270	276.17303	149.26131	195.59268	279.07770	146.66931	59.78809	
129	1.280	276.19043	149.27545	195.99298	279.17007	146.67363	60.11688	
130	1.290	276.19464	149.29179	196.40898	279.24432	146.68195	60.47381	
